<svg id="visual" viewBox="0 0 900 450" width="900" height="450" xmlns="http://www.w3.org/2000/svg" xmlns:xlink="http://www.w3.org/1999/xlink" version="1.1"><path d="M0 368L30 363.7C60 359.3 120 350.7 180 351.3C240 352 300 362 360 364.8C420 367.7 480 363.3 540 359.2C600 355 660 351 720 352.8C780 354.7 840 362.3 870 366.2L900 370L900 451L870 451C840 451 780 451 720 451C660 451 600 451 540 451C480 451 420 451 360 451C300 451 240 451 180 451C120 451 60 451 30 451L0 451Z" fill="#a6a6a6"></path><path d="M0 373L30 375.7C60 378.3 120 383.7 180 386.8C240 390 300 391 360 391.3C420 391.7 480 391.3 540 390.8C600 390.3 660 389.7 720 388.5C780 387.3 840 385.7 870 384.8L900 384L900 451L870 451C840 451 780 451 720 451C660 451 600 451 540 451C480 451 420 451 360 451C300 451 240 451 180 451C120 451 60 451 30 451L0 451Z" fill="#a48ebc"></path><path d="M0 392L30 393.5C60 395 120 398 180 397.2C240 396.3 300 391.7 360 391.5C420 391.3 480 395.7 540 397C600 398.3 660 396.7 720 394C780 391.3 840 387.7 870 385.8L900 384L900 451L870 451C840 451 780 451 720 451C660 451 600 451 540 451C480 451 420 451 360 451C300 451 240 451 180 451C120 451 60 451 30 451L0 451Z" fill="#9d74d2"></path><path d="M0 406L30 406.5C60 407 120 408 180 408.8C240 409.7 300 410.3 360 410.2C420 410 480 409 540 410.5C600 412 660 416 720 417.7C780 419.3 840 418.7 870 418.3L900 418L900 451L870 451C840 451 780 451 720 451C660 451 600 451 540 451C480 451 420 451 360 451C300 451 240 451 180 451C120 451 60 451 30 451L0 451Z" fill="#9159e7"></path><path d="M0 435L30 435C60 435 120 435 180 432.8C240 430.7 300 426.3 360 425.7C420 425 480 428 540 428.3C600 428.7 660 426.3 720 425.2C780 424 840 424 870 424L900 424L900 451L870 451C840 451 780 451 720 451C660 451 600 451 540 451C480 451 420 451 360 451C300 451 240 451 180 451C120 451 60 451 30 451L0 451Z" fill="#7f39fb"></path></svg>